<?xml version="1.0" encoding="UTF-8" standalone="no"?>
<!DOCTYPE svg PUBLIC "-//W3C//DTD SVG 1.1//EN" "http://www.w3.org/Graphics/SVG/1.1/DTD/svg11.dtd">
<svg version="1.1" xmlns="http://www.w3.org/2000/svg" xmlns:xlink="http://www.w3.org/1999/xlink" preserveAspectRatio="xMidYMid meet" viewBox="0 0 640 640" width="250" height="250"><defs><path d="M53.3 62.79L572.42 62.79L572.42 581.9L53.3 581.9L53.3 62.79Z" id="c2rvBeZE9q"></path><path d="M387.26 305.77L248.27 320C254.7 324.12 258.72 326.7 260.33 327.73C272.52 335.55 286.16 340.83 300.43 343.26C313.65 345.51 336.59 349.42 351.04 351.89C361.04 353.59 371.32 351.65 380.01 346.42C387.85 341.7 377.32 348.04 380.01 346.42C405.63 331.01 435.09 323.19 464.98 323.87C464.98 323.87 464.98 323.87 464.98 323.87L387.26 305.77Z" id="b16dkx9QHU"></path><path d="M381.9 584.91L362.5 409.29" id="aDPmgBjW"></path><path d="M400.52 314.68C399.31 320.52 398.55 324.18 398.25 325.64C394.67 342.86 387.14 359.02 376.26 372.85C374.97 374.5 371.72 378.62 366.54 385.22" id="awkXGHqXM"></path><path d="M354.95 317.78C355.97 318.56 356.6 319.05 356.85 319.24C378.16 335.69 393.88 358.3 401.85 384C402.29 385.42 403.39 388.97 405.15 394.64" id="broZe4cda"></path><path d="M413.94 314.68C412 322.76 410.78 327.81 410.29 329.83C405.59 349.34 396.15 367.39 382.81 382.38C382.11 383.17 380.36 385.13 377.56 388.27" id="dymEiQ7Ka"></path><path d="M311.11 389.02L309.88 339.88L286.22 329.13C286.22 338.78 286.22 344.81 286.22 347.23C286.22 361.35 282.36 375.21 275.04 387.3C274.9 387.53 274.56 388.1 274 389.02L311.11 389.02Z" id="c6Y378ohFP"></path><path d="M257.27 320.84C259.29 326.26 260.55 329.65 261.06 331.01C266.69 346.14 270.54 361.87 272.52 377.89C272.72 379.49 273.21 383.47 274 389.84" id="e2c8Zd3UPI"></path><path d="M271.22 318.78C271.33 319.17 271.4 319.41 271.43 319.51C277.71 342.13 280.61 365.55 280.02 389.02C280.02 389.02 280.02 389.02 280.02 389.02" id="b4Il4Xo3Rd"></path><path d="M370.53 308.28C371.45 309.19 372.01 309.75 372.24 309.97C391.37 328.91 404.18 353.29 408.94 379.78C409.2 381.24 409.85 384.89 410.9 390.73" id="dkCBVefr3"></path><path d="" id="cayOEfSbD"></path><path d="M276.11 335.2C276.59 330.45 276.57 325.66 276.06 320.91C275.94 319.82 276.22 322.39 276.06 320.97C275.77 318.28 272.91 316.67 270.45 317.81C265.6 320.08 260.72 322.36 257.03 324.08C251.98 326.44 246.19 322.75 246.19 317.18C246.19 310.75 246.19 299.63 246.19 292.25C246.19 287.46 245.57 282.69 244.36 278.06C243.29 274.01 241.59 267.54 240.44 263.16C239.53 259.69 239.6 256.02 240.64 252.58C244.5 239.82 250.91 218.61 253.87 208.81C257.87 195.58 264.47 183.28 273.28 172.63C284.55 159.01 270.61 175.85 273.28 172.63C306.25 132.79 362.38 121.03 408.56 144.28C417.58 148.83 409.92 144.97 429.99 155.08C445.41 162.84 458.14 175.06 466.53 190.14C471.98 199.95 463.95 185.51 466.53 190.14C484.17 221.86 490.27 258.71 483.8 294.42C483.38 296.69 482.36 302.35 480.71 311.42C474.93 321.89 471.32 328.44 469.88 331.06C465.99 338.11 456.16 338.9 451.19 332.56C449 329.76 453.17 335.09 451.05 332.37C444.32 323.78 433.65 319.26 422.8 320.42C415.09 321.23 402.8 322.54 393.44 323.54C387.58 324.16 381.7 322.44 377.1 318.75C375.79 317.69 377.59 319.14 375.92 317.79C372.48 315.04 368.04 313.86 363.69 314.54C362.5 314.73 366.28 314.13 365.21 314.3C360.8 314.99 357.41 318.58 356.98 323.03C356.17 331.25 355.77 336.38 355.77 338.42C355.77 344.69 349.8 352.9 343.65 353.58C343.48 353.6 325.58 354.46 289.96 356.16C289.96 356.16 289.96 356.16 289.96 356.16C284.14 356.33 278.91 352.61 277.18 347.04C276.84 345.94 277.77 348.92 277.18 347.04C276.05 343.4 275.66 339.57 276.05 335.77C276.21 334.23 275.98 336.46 276.11 335.2Z" id="d27rcErdby"></path><path d="M387.26 576.78L377.56 401.16" id="b5nXWGv43F"></path><path d="M387.86 581.9C387.19 576.25 386.77 572.71 386.6 571.3C380.77 522.17 386.32 472.35 402.83 425.71C404.17 421.93 407.51 412.49 412.86 397.38" id="agZD2sq8e"></path><path d="M259.92 241.55C272.45 232.66 289.65 234.59 299.9 246.02C302.49 248.91 297.88 243.78 301.88 248.23C308.57 255.7 310.33 266.37 306.38 275.59C305.53 277.57 309.97 267.21 309.25 268.89C304.87 279.12 295.26 286.15 284.19 287.23C278.01 287.83 274.11 288.21 267.1 288.9C259.25 289.66 252.06 284.43 250.38 276.73C249.3 271.81 249.8 274.06 248.91 270.02C246.54 259.18 250.88 247.97 259.92 241.55C264.32 238.43 256.94 243.67 259.92 241.55Z" id="l1rblEvb0h"></path><path d="M296.92 327.86C292.8 320.08 293.27 310.67 298.14 303.34C299.22 301.72 301.91 297.68 306.21 291.2C310.83 281.57 313.72 275.55 314.88 273.14C316.78 269.18 322.51 269.48 323.99 273.61C324.69 275.56 326.44 280.45 329.25 288.27L336.12 300.45C337.08 302.37 337.68 303.56 337.92 304.04C340.33 308.83 340.42 314.46 338.17 319.33C336.68 322.56 338.44 318.75 337.62 320.53C334.55 327.18 325.44 328.01 321.22 322.03C320.26 320.67 321.46 322.37 319.15 319.09C317.8 317.18 314.98 317.13 313.56 318.98C311.04 322.28 311.06 322.26 309.72 324.01C305.62 329.37 297.35 328.68 294.2 322.72C293.41 321.22 297.73 329.39 296.92 327.86Z" id="b180A1kg6"></path><path d="M348.57 584.91C348.57 571.75 348.57 563.52 348.57 560.23C348.57 522.96 348.9 486.68 327.45 456.35C326.08 454.41 316.73 443.32 315.28 441.44C312.63 437.99 304.69 432.43 291.45 424.76" id="a6JsDbK10A"></path><path d="M362.5 587.5C362.12 581.3 361.88 577.43 361.78 575.88C358.84 528.43 351.13 481.4 338.75 435.5C337.68 431.53 335 421.6 330.71 405.71" id="a2u0fmXRk"></path><path d="M352.87 382.09C354.25 381.84 355.65 381.85 357.03 382.11C365.67 383.73 383.32 387.05 390.41 388.39C396.14 389.47 401.85 386.38 404.08 380.99C408.46 370.46 418.67 345.87 423.28 334.77C424.31 332.3 427.78 332.22 428.92 334.64C429.32 335.49 430.32 337.6 431.9 340.97C434.67 339.86 436.41 339.17 437.1 338.89C444.56 335.9 452.35 342.42 450.73 350.29C446.96 368.52 438.36 410.2 434.31 429.77C433.04 435.93 426.61 439.52 420.7 437.39C418.24 436.5 412.09 434.27 402.24 430.71L363.06 428.21C353.77 430.8 347.96 432.41 345.64 433.05C338.25 435.11 330.47 435.32 322.98 433.69C320.25 433.09 321.85 433.44 318.72 432.76C312.5 431.41 306.11 431.11 299.79 431.9C296.11 432.35 295.28 432.46 291.76 432.89C285.79 433.63 280.16 429.91 278.51 424.12C277.73 421.42 275.81 414.67 272.72 403.88C270.91 399.45 269.78 396.67 269.33 395.56C268.48 393.48 268.46 391.15 269.27 389.06C269.66 388.04 269.56 388.28 269.95 387.27C270.7 385.33 272.67 384.14 274.74 384.39C282.5 385.31 278.57 384.85 280.41 385.06C302.39 387.69 324.64 387.07 346.44 383.22C348.14 382.92 345.01 383.47 352.87 382.09Z" id="aeOS2noYd"></path><path d="M305.73 551.82L325.94 576.78L396.08 573.22L435.31 551.82L435.31 526.85C425.65 522.88 419.62 520.39 417.2 519.39C415.92 518.87 414.46 519.14 413.45 520.08C408.91 524.31 397.58 534.89 379.44 551.82L329.51 551.82L309.3 541.12L305.73 551.82Z" id="b1E7hpVarE"></path><path d="M349.48 243.01C354.54 234.39 364.83 230.34 374.4 233.2C384.71 236.27 394.12 239.08 403.13 241.77C416.67 245.8 425.95 258.26 425.95 272.39C425.95 273.86 425.95 259.68 425.95 262.46C425.95 273.62 422.01 284.43 414.82 292.97C413.47 294.57 424.25 281.76 423.83 282.27C414.53 293.3 399.01 296.77 385.9 290.74C378.44 287.31 367.3 282.19 357.11 277.5C351.9 275.1 348.57 269.9 348.57 264.18C348.57 260.25 348.57 261.39 348.57 258.35C348.57 249.32 350.98 240.46 355.55 232.67C356.06 231.81 349.3 243.32 349.48 243.01Z" id="dh6vE0SvU"></path><path d="M305.73 512.38L325.94 537.34L396.08 533.78L435.31 512.38L435.31 487.41C425.65 483.43 419.62 480.95 417.2 479.95C415.92 479.43 414.46 479.7 413.45 480.64C408.91 484.87 397.58 495.45 379.44 512.38L329.51 512.38L309.3 501.68L305.73 512.38Z" id="aF10AXz27"></path><path d="M305.73 474.13L325.94 499.09L396.08 495.52L435.31 474.13L435.31 449.16C425.65 445.18 419.62 442.7 417.2 441.7C415.92 441.18 414.46 441.44 413.45 442.39C408.91 446.62 397.58 457.2 379.44 474.13L329.51 474.13L309.3 463.43L305.73 474.13Z" id="b1rioFtzQd"></path><path d="M300.73 354.89L307.68 354.53C307.89 358.54 308.02 361.05 308.08 362.05C308.14 363.31 307.18 364.38 305.92 364.45C304.98 364.5 304.52 364.52 303.6 364.57C302.3 364.64 301.19 363.64 301.12 362.34C301.07 361.35 300.94 358.86 300.73 354.89Z" id="d4qtLD04ji"></path><path d="M292.49 354.14L299.44 353.78C299.65 357.79 299.78 360.3 299.83 361.3C299.9 362.56 298.93 363.63 297.67 363.7C296.74 363.75 296.27 363.77 295.35 363.82C294.05 363.89 292.94 362.89 292.88 361.59C292.82 360.6 292.69 358.11 292.49 354.14Z" id="e5I11MNOLI"></path><path d="M285.13 352.89L292.09 352.53C292.3 356.54 292.43 359.05 292.48 360.05C292.55 361.31 291.58 362.38 290.32 362.45C289.39 362.5 288.92 362.52 288 362.57C286.7 362.64 285.59 361.64 285.52 360.34C285.47 359.35 285.34 356.86 285.13 352.89Z" id="d7BT6IA3ov"></path><path d="M309.88 354.89L316.84 354.53C317.05 358.54 317.18 361.05 317.23 362.05C317.3 363.31 316.33 364.38 315.07 364.45C314.14 364.5 313.67 364.52 312.75 364.57C311.45 364.64 310.34 363.64 310.27 362.34C310.22 361.35 310.09 358.86 309.88 354.89Z" id="d1kkpArRr"></path><path d="M317.88 354.89L324.84 354.53C325.05 358.54 325.18 361.05 325.23 362.05C325.3 363.31 324.33 364.38 323.07 364.45C322.14 364.5 321.67 364.52 320.75 364.57C319.45 364.64 318.34 363.64 318.27 362.34C318.22 361.35 318.09 358.86 317.88 354.89Z" id="aXth1j9qj"></path><path d="M326.13 354.14L333.09 353.78C333.3 357.79 333.43 360.3 333.48 361.3C333.55 362.56 332.58 363.63 331.32 363.7C330.39 363.75 329.92 363.77 329 363.82C327.7 363.89 326.59 362.89 326.52 361.59C326.47 360.6 326.34 358.11 326.13 354.14Z" id="a18t5bgABO"></path><path d="M334.38 352.89L341.34 352.53C341.55 356.54 341.68 359.05 341.73 360.05C341.8 361.31 340.83 362.38 339.57 362.45C338.64 362.5 338.17 362.52 337.25 362.57C335.95 362.64 334.84 361.64 334.77 360.34C334.72 359.35 334.59 356.86 334.38 352.89Z" id="iL9vZgwm5"></path><path d="M342.93 349.87L349.89 349.51C350.1 353.52 350.23 356.02 350.28 357.03C350.35 358.29 349.38 359.36 348.12 359.43C347.19 359.48 346.72 359.5 345.8 359.55C344.5 359.62 343.39 358.62 343.32 357.32C343.27 356.32 343.14 353.84 342.93 349.87Z" id="d9S0fiKb"></path><path d="M335.06 384.85L328.11 385.22C327.9 381.21 327.77 378.7 327.71 377.7C327.65 376.44 328.62 375.37 329.88 375.3C330.81 375.25 331.28 375.23 332.2 375.18C333.5 375.11 334.61 376.11 334.67 377.41C334.73 378.4 334.86 380.88 335.06 384.85Z" id="g1EMhhGMN"></path><path d="M343.65 383.6L336.7 383.97C336.49 379.96 336.36 377.45 336.3 376.45C336.24 375.19 337.2 374.12 338.46 374.05C339.4 374 339.86 373.98 340.78 373.93C342.08 373.86 343.19 374.86 343.26 376.16C343.31 377.15 343.44 379.63 343.65 383.6Z" id="bKqojqxQ1"></path><path d="M353.16 383.6L346.21 383.97C346 379.96 345.87 377.45 345.82 376.45C345.75 375.19 346.72 374.12 347.98 374.05C348.91 374 349.38 373.98 350.3 373.93C351.6 373.86 352.71 374.86 352.77 376.16C352.83 377.15 352.96 379.63 353.16 383.6Z" id="a1hPxm7o3q"></path><path d="M326.97 386.2L320.01 386.56C319.8 382.55 319.67 380.04 319.62 379.04C319.55 377.78 320.52 376.71 321.78 376.64C322.72 376.59 323.18 376.57 324.1 376.52C325.4 376.45 326.51 377.45 326.58 378.75C326.63 379.74 326.76 382.23 326.97 386.2Z" id="a3ng5lrKt"></path><path d="M318.46 386.38L311.51 386.74C311.3 382.73 311.17 380.22 311.12 379.22C311.05 377.96 312.02 376.89 313.28 376.82C314.21 376.77 314.68 376.75 315.6 376.7C316.9 376.63 318.01 377.63 318.07 378.93C318.13 379.92 318.26 382.41 318.46 386.38Z" id="a504NwNg6Z"></path><path d="M309.88 386.2L302.93 386.56C302.72 382.55 302.59 380.04 302.54 379.04C302.47 377.78 303.44 376.71 304.7 376.64C305.63 376.59 306.1 376.57 307.02 376.52C308.32 376.45 309.43 377.45 309.5 378.75C309.55 379.74 309.68 382.23 309.88 386.2Z" id="adTBWw6Ov"></path><path d="M300.73 386.38L293.77 386.74C293.56 382.73 293.43 380.22 293.38 379.22C293.32 377.96 294.28 376.89 295.54 376.82C296.48 376.77 296.94 376.75 297.86 376.7C299.16 376.63 300.27 377.63 300.34 378.93C300.39 379.92 300.52 382.41 300.73 386.38Z" id="hXIigi2VA"></path><path d="M291.45 386.38L284.49 386.74C284.28 382.73 284.15 380.22 284.1 379.22C284.03 377.96 285 376.89 286.26 376.82C287.2 376.77 287.66 376.75 288.58 376.7C289.88 376.63 290.99 377.63 291.06 378.93C291.11 379.92 291.24 382.41 291.45 386.38Z" id="bk9LHcsUA"></path></defs><g><g><g></g><g><use xlink:href="#b16dkx9QHU" opacity="1" fill="#989898" fill-opacity="1"></use></g><g><g><use xlink:href="#aDPmgBjW" opacity="1" fill-opacity="0" stroke="#303030" stroke-width="8" stroke-opacity="1"></use></g></g><g><g><use xlink:href="#awkXGHqXM" opacity="1" fill-opacity="0" stroke="#292020" stroke-width="3" stroke-opacity="1"></use></g></g><g><g><use xlink:href="#broZe4cda" opacity="1" fill-opacity="0" stroke="#292020" stroke-width="2" stroke-opacity="1"></use></g></g><g><g><use xlink:href="#dymEiQ7Ka" opacity="1" fill-opacity="0" stroke="#292020" stroke-width="4" stroke-opacity="1"></use></g></g><g><use xlink:href="#c6Y378ohFP" opacity="1" fill="#7d7d7d" fill-opacity="1"></use></g><g><g><use xlink:href="#e2c8Zd3UPI" opacity="1" fill-opacity="0" stroke="#292020" stroke-width="3" stroke-opacity="1"></use></g></g><g><g><use xlink:href="#b4Il4Xo3Rd" opacity="1" fill-opacity="0" stroke="#292020" stroke-width="3" stroke-opacity="1"></use></g></g><g><g><use xlink:href="#dkCBVefr3" opacity="1" fill-opacity="0" stroke="#292020" stroke-width="3" stroke-opacity="1"></use></g></g><g><g><use xlink:href="#cayOEfSbD" opacity="1" fill-opacity="0" stroke="#292020" stroke-width="5" stroke-opacity="1"></use></g></g><g><use xlink:href="#d27rcErdby" opacity="1" fill="#000000" fill-opacity="1"></use><g><use xlink:href="#d27rcErdby" opacity="1" fill-opacity="0" stroke="#000000" stroke-width="1" stroke-opacity="1"></use></g></g><g><g><use xlink:href="#b5nXWGv43F" opacity="1" fill-opacity="0" stroke="#303030" stroke-width="8" stroke-opacity="1"></use></g></g><g><g><use xlink:href="#agZD2sq8e" opacity="1" fill-opacity="0" stroke="#171717" stroke-width="8" stroke-opacity="1"></use></g></g><g><use xlink:href="#l1rblEvb0h" opacity="1" fill="#ffffff" fill-opacity="1"></use><g><use xlink:href="#l1rblEvb0h" opacity="1" fill-opacity="0" stroke="#000000" stroke-width="1" stroke-opacity="1"></use></g></g><g><use xlink:href="#b180A1kg6" opacity="1" fill="#ffffff" fill-opacity="1"></use><g><use xlink:href="#b180A1kg6" opacity="1" fill-opacity="0" stroke="#000000" stroke-width="1" stroke-opacity="1"></use></g></g><g><g><use xlink:href="#a6JsDbK10A" opacity="1" fill-opacity="0" stroke="#393939" stroke-width="8" stroke-opacity="1"></use></g></g><g><g><use xlink:href="#a2u0fmXRk" opacity="1" fill-opacity="0" stroke="#292929" stroke-width="8" stroke-opacity="1"></use></g></g><g><use xlink:href="#aeOS2noYd" opacity="1" fill="#000000" fill-opacity="1"></use><g><use xlink:href="#aeOS2noYd" opacity="1" fill-opacity="0" stroke="#000000" stroke-width="1" stroke-opacity="1"></use></g></g><g><use xlink:href="#b1E7hpVarE" opacity="1" fill="#000000" fill-opacity="1"></use><g><use xlink:href="#b1E7hpVarE" opacity="1" fill-opacity="0" stroke="#000000" stroke-width="1" stroke-opacity="1"></use></g></g><g><use xlink:href="#dh6vE0SvU" opacity="1" fill="#ffffff" fill-opacity="1"></use><g><use xlink:href="#dh6vE0SvU" opacity="1" fill-opacity="0" stroke="#000000" stroke-width="1" stroke-opacity="1"></use></g></g><g><use xlink:href="#aF10AXz27" opacity="1" fill="#000000" fill-opacity="1"></use><g><use xlink:href="#aF10AXz27" opacity="1" fill-opacity="0" stroke="#000000" stroke-width="1" stroke-opacity="1"></use></g></g><g><use xlink:href="#b1rioFtzQd" opacity="1" fill="#000000" fill-opacity="1"></use><g><use xlink:href="#b1rioFtzQd" opacity="1" fill-opacity="0" stroke="#000000" stroke-width="1" stroke-opacity="1"></use></g></g><g><use xlink:href="#d4qtLD04ji" opacity="1" fill="#000000" fill-opacity="1"></use></g><g><use xlink:href="#e5I11MNOLI" opacity="1" fill="#000000" fill-opacity="1"></use></g><g><use xlink:href="#d7BT6IA3ov" opacity="1" fill="#000000" fill-opacity="1"></use></g><g><use xlink:href="#d1kkpArRr" opacity="1" fill="#000000" fill-opacity="1"></use></g><g><use xlink:href="#aXth1j9qj" opacity="1" fill="#000000" fill-opacity="1"></use></g><g><use xlink:href="#a18t5bgABO" opacity="1" fill="#000000" fill-opacity="1"></use></g><g><use xlink:href="#iL9vZgwm5" opacity="1" fill="#000000" fill-opacity="1"></use></g><g><use xlink:href="#d9S0fiKb" opacity="1" fill="#000000" fill-opacity="1"></use></g><g><use xlink:href="#g1EMhhGMN" opacity="1" fill="#000000" fill-opacity="1"></use></g><g><use xlink:href="#bKqojqxQ1" opacity="1" fill="#000000" fill-opacity="1"></use></g><g><use xlink:href="#a1hPxm7o3q" opacity="1" fill="#000000" fill-opacity="1"></use></g><g><use xlink:href="#a3ng5lrKt" opacity="1" fill="#000000" fill-opacity="1"></use></g><g><use xlink:href="#a504NwNg6Z" opacity="1" fill="#000000" fill-opacity="1"></use></g><g><use xlink:href="#adTBWw6Ov" opacity="1" fill="#000000" fill-opacity="1"></use></g><g><use xlink:href="#hXIigi2VA" opacity="1" fill="#000000" fill-opacity="1"></use></g><g><use xlink:href="#bk9LHcsUA" opacity="1" fill="#000000" fill-opacity="1"></use></g></g></g></svg>